<svg xmlns="http://www.w3.org/2000/svg" viewBox="0 0 1400 840">
<rect width="1400" height="840" fill="#ECEAE3"/>
<rect x="74" y="58" width="1252" height="724" rx="26" fill="#F9F8F4" stroke="#111111" stroke-width="2"/>
<rect x="74" y="58" width="1252" height="74" rx="26" fill="#F2F0E9"/><path d="M74 132H1326" stroke="#111111" stroke-width="2"/>
<circle cx="110" cy="95" r="7" fill="#E2362F"/><circle cx="134" cy="95" r="7" fill="#111111"/><circle cx="158" cy="95" r="7" fill="#111111"/>
<text x="208" y="104" font-family="Helvetica,Arial,'PingFang SC',sans-serif" font-size="21" font-weight="700" fill="#111111">网页核查截图「主体 · 时间 · 结果」自动化质检</text><rect x="112" y="166" width="260" height="560" fill="#EFEDE6"/><text x="138" y="204" font-family="Helvetica,Arial" font-size="12" fill="#6B6B66">COMPANIES</text><rect x="132" y="232" width="220" height="62" rx="8" fill="#FFFFFF"/><rect x="132" y="306" width="220" height="62" rx="8" fill="#FFFFFF"/><text x="414" y="202" font-family="Helvetica,Arial" font-size="13" fill="#E2362F">DUECHECK</text><text x="414" y="244" font-family="Helvetica,Arial,'PingFang SC',sans-serif" font-size="34" font-weight="700" fill="#111111">主体 · 时间 · 结果</text><rect x="414" y="282" width="842" height="58" rx="10" fill="#FFFFFF" stroke="#D3D0C8"/><text x="438" y="318" font-family="Helvetica,Arial,'PingFang SC',sans-serif" font-size="14" fill="#6B6B66">待处理     待看图     全部                                           查找网站</text><rect x="414" y="364" width="842" height="128" rx="12" fill="#FFFFFF"/><text x="438" y="398" font-family="Helvetica,Arial,'PingFang SC',sans-serif" font-size="17" font-weight="700" fill="#111111">全国企业信用信息公示系统</text><rect x="438" y="420" width="86" height="28" rx="14" fill="#F1DED7"/><text x="481" y="439" text-anchor="middle" font-family="Helvetica,Arial" font-size="11" fill="#E2362F">MISMATCH</text><path d="M548 434H840" stroke="#111111" stroke-width="5"/><rect x="414" y="510" width="842" height="176" rx="12" fill="#FFFFFF"/><rect x="440" y="536" width="330" height="124" fill="#F0EEE7"/><rect x="792" y="536" width="438" height="34" rx="6" fill="#F2F0E9"/><rect x="792" y="582" width="126" height="30" rx="15" fill="#111111"/><rect x="930" y="582" width="126" height="30" rx="15" fill="#E2362F"/><text x="118" y="752" font-family="Helvetica,Arial" font-size="11" letter-spacing="2" fill="#6B6B66">LOCAL · AUDITABLE · HUMAN IN THE LOOP</text></svg>